# Blender 4.3.2
# www.blender.org
mtllib settings_laptop.mtl
o Cube.001
v 0.400000 -0.400000 -0.500000
v 0.400000 -0.500000 -0.500000
v 0.400000 -0.400000 0.500000
v 0.400000 -0.500000 0.500000
v -0.400000 -0.400000 -0.500000
v -0.400000 -0.500000 -0.500000
v -0.400000 -0.400000 0.500000
v -0.400000 -0.500000 0.500000
vn -0.0000 1.0000 -0.0000
vn -0.0000 -0.0000 1.0000
vn -1.0000 -0.0000 -0.0000
vn -0.0000 -1.0000 -0.0000
vn 1.0000 -0.0000 -0.0000
vn -0.0000 -0.0000 -1.0000
vt 1.000000 0.563558
vt 1.000000 0.978297
vt 0.500000 0.978297
vt 0.500000 0.563558
vt 1.000000 0.000000
vt 1.000000 0.500000
vt 0.500000 0.500000
vt 0.500000 -0.000000
vt 1.000000 -0.000000
vt 0.500000 0.500000
vt 0.500000 0.000000
s 0
usemtl Material
f 1/1/1 5/2/1 7/3/1 3/4/1
f 4/5/2 3/6/2 7/7/2 8/8/2
f 8/9/3 7/6/3 5/10/3 6/11/3
f 6/10/4 2/11/4 4/9/4 8/6/4
f 2/9/5 1/6/5 3/10/5 4/11/5
f 6/9/6 5/6/6 1/10/6 2/11/6
o Cube.002
v -0.714363 0.241392 -0.500000
v -0.623732 0.283654 -0.500000
v -0.714363 0.241392 0.500000
v -0.623732 0.283654 0.500000
v -0.376268 -0.483654 -0.500000
v -0.285637 -0.441392 -0.500000
v -0.376268 -0.483654 0.500000
v -0.285637 -0.441392 0.500000
vn -0.9063 -0.4226 -0.0000
vn -0.0000 -0.0000 1.0000
vn 0.4226 -0.9063 -0.0000
vn 0.9063 0.4226 -0.0000
vn -0.4226 0.9063 -0.0000
vn -0.0000 -0.0000 -1.0000
vt 0.000000 0.000000
vt 0.500000 0.000000
vt 0.500000 0.500000
vt 0.000000 0.500000
vt 0.500000 0.537205
vt 0.500000 0.936442
vt 0.000000 0.936442
vt -0.000000 0.537205
vt 0.497500 0.497500
vt 0.002500 0.497500
vt 0.002500 0.002500
vt 0.497500 0.002500
s 0
usemtl Material
f 9/12/7 13/13/7 15/14/7 11/15/7
f 12/12/8 11/13/8 15/14/8 16/15/8
f 16/12/9 15/13/9 13/14/9 14/15/9
f 14/16/10 10/17/10 12/18/10 16/19/10
f 10/20/11 9/21/11 11/22/11 12/23/11
f 14/12/12 13/13/12 9/14/12 10/15/12
