# Blender 4.3.2
# www.blender.org
mtllib maps_monitor.mtl
o Куб
v -0.160746 -0.500747 0.085013
v -0.160746 -0.424998 0.085013
v -0.160746 -0.500747 -0.090258
v -0.160746 -0.424998 -0.090258
v 0.160746 -0.500747 0.085013
v 0.160746 -0.424998 0.085013
v 0.160746 -0.500747 -0.090258
v 0.160746 -0.424998 -0.090258
v -0.457946 -0.385237 0.041597
v -0.457946 0.227691 0.041597
v -0.457946 -0.385237 -0.046842
v -0.457946 0.227691 -0.046842
v 0.457946 -0.385237 0.041597
v 0.457946 0.227691 0.041597
v 0.457946 -0.385237 -0.046842
v 0.457946 0.227691 -0.046842
v -0.044889 -0.431023 0.056578
v -0.044889 -0.158553 0.056578
v -0.044889 -0.431023 -0.033200
v -0.044889 -0.158553 -0.033200
v 0.044889 -0.431023 0.056578
v 0.044889 -0.158553 0.056578
v 0.044889 -0.431023 -0.033200
v 0.044889 -0.158553 -0.033200
vn -1.0000 -0.0000 -0.0000
vn -0.0000 -0.0000 -1.0000
vn 1.0000 -0.0000 -0.0000
vn -0.0000 -0.0000 1.0000
vn -0.0000 -1.0000 -0.0000
vn -0.0000 1.0000 -0.0000
vt 0.000000 0.000000
vt 0.250000 0.000000
vt 0.250000 0.125000
vt 0.000000 0.125000
vt 0.500000 0.000000
vt 0.500000 0.125000
vt 0.500000 0.250000
vt 0.000000 0.250000
vt 0.375000 0.000000
vt 0.375000 0.250000
vt 0.875000 0.375000
vt 1.000000 0.375000
vt 1.000000 1.000000
vt 0.875000 1.000000
vt 0.000000 0.529529
vt 0.688480 0.529529
vt 0.690941 1.000000
vt 0.000000 1.000000
vt 0.875000 0.000000
vt 1.000000 0.000000
vt 1.000000 0.500000
vt 0.000000 0.500000
vt 1.000000 0.125000
vt 0.000000 0.375000
vt 0.875000 0.625000
vt 1.000000 0.625000
vt 0.875000 0.875000
vt 1.000000 0.875000
s 1
usemtl Material.001
f 1/1/1 2/2/1 4/3/1 3/4/1
f 3/1/2 4/5/2 8/6/2 7/4/2
f 7/1/3 8/2/3 6/3/3 5/4/3
f 5/1/4 6/5/4 2/6/4 1/4/4
f 3/1/5 7/5/5 5/7/5 1/8/5
f 8/1/6 4/9/6 2/10/6 6/8/6
f 17/25/1 18/26/1 20/13/1 19/14/1
f 19/25/2 20/26/2 24/13/2 23/14/2
f 23/25/3 24/26/3 22/13/3 21/14/3
f 21/25/4 22/26/4 18/13/4 17/14/4
f 19/27/5 23/28/5 21/13/5 17/14/5
f 24/27/6 20/28/6 18/13/6 22/14/6
usemtl Material.002
f 9/11/1 10/12/1 12/13/1 11/14/1
f 11/15/2 12/16/2 16/17/2 15/18/2
f 15/19/3 16/20/3 14/13/3 13/14/3
f 13/1/4 14/20/4 10/21/4 9/22/4
f 11/1/5 15/20/5 13/23/5 9/4/5
f 16/24/6 12/12/6 10/21/6 14/22/6
