# Blender 4.3.2
# www.blender.org
mtllib maps_cams.mtl
o Куб
v -0.422815 -0.497840 0.223613
v -0.422815 -0.298597 0.223613
v -0.422815 -0.497840 -0.237409
v -0.422815 -0.298597 -0.237409
v 0.422815 -0.497840 0.223613
v 0.422815 -0.298597 0.223613
v 0.422815 -0.497840 -0.237409
v 0.422815 -0.298597 -0.237409
vn -1.0000 -0.0000 -0.0000
vn -0.0000 -0.0000 -1.0000
vn 1.0000 -0.0000 -0.0000
vn -0.0000 -0.0000 1.0000
vn -0.0000 -1.0000 -0.0000
vn -0.0000 1.0000 -0.0000
vt 0.000000 0.000000
vt 0.250000 0.000000
vt 0.250000 0.125000
vt 0.000000 0.125000
vt 0.500000 0.000000
vt 0.500000 0.125000
vt 0.500000 0.250000
vt 0.000000 0.250000
vt 0.375000 0.000000
vt 0.375000 0.250000
s 0
usemtl Material
f 1/1/1 2/2/1 4/3/1 3/4/1
f 3/1/2 4/5/2 8/6/2 7/4/2
f 7/1/3 8/2/3 6/3/3 5/4/3
f 5/1/4 6/5/4 2/6/4 1/4/4
f 3/1/5 7/5/5 5/7/5 1/8/5
f 8/1/6 4/9/6 2/10/6 6/8/6
o Куб.003
v -1.204550 -0.194012 0.109413
v -1.204550 1.418191 0.109413
v -1.204550 -0.194012 -0.123210
v -1.204550 1.418191 -0.123210
v 1.204550 -0.194012 0.109413
v 1.204550 1.418191 0.109413
v 1.204550 -0.194012 -0.123210
v 1.204550 1.418191 -0.123210
v -0.118074 -0.314444 0.148820
v -0.118074 0.402242 0.148820
v -0.118074 -0.314444 -0.087328
v -0.118074 0.402242 -0.087328
v 0.118074 -0.314444 0.148820
v 0.118074 0.402242 0.148820
v 0.118074 -0.314444 -0.087328
v 0.118074 0.402242 -0.087328
vn -1.0000 -0.0000 -0.0000
vn -0.0000 -0.0000 -1.0000
vn 1.0000 -0.0000 -0.0000
vn -0.0000 -0.0000 1.0000
vn -0.0000 -1.0000 -0.0000
vn -0.0000 1.0000 -0.0000
vt 0.875000 0.375000
vt 1.000000 0.375000
vt 1.000000 1.000000
vt 0.875000 1.000000
vt 0.000000 0.529529
vt 0.688480 0.529529
vt 0.690941 1.000000
vt 0.000000 1.000000
vt 0.875000 0.000000
vt 1.000000 0.000000
vt 0.000000 0.000000
vt 1.000000 0.500000
vt 0.000000 0.500000
vt 1.000000 0.125000
vt 0.000000 0.125000
vt 0.000000 0.375000
vt 0.875000 0.625000
vt 1.000000 0.625000
vt 0.875000 0.875000
vt 1.000000 0.875000
s 0
usemtl Material.002
f 9/11/7 10/12/7 12/13/7 11/14/7
f 11/15/8 12/16/8 16/17/8 15/18/8
f 15/19/9 16/20/9 14/13/9 13/14/9
f 13/21/10 14/20/10 10/22/10 9/23/10
f 11/21/11 15/20/11 13/24/11 9/25/11
f 16/26/12 12/12/12 10/22/12 14/23/12
usemtl Material
f 17/27/7 18/28/7 20/13/7 19/14/7
f 19/27/8 20/28/8 24/13/8 23/14/8
f 23/27/9 24/28/9 22/13/9 21/14/9
f 21/27/10 22/28/10 18/13/10 17/14/10
f 19/29/11 23/30/11 21/13/11 17/14/11
f 24/29/12 20/30/12 18/13/12 22/14/12
o Куб.004
v -1.044530 0.340414 0.134868
v -1.768895 0.418308 -0.633842
v -0.951734 0.358381 0.049245
v -1.676099 0.436275 -0.719464
v -1.053108 0.500574 0.159180
v -1.777473 0.578467 -0.609529
v -0.960312 0.518541 0.073557
v -1.684677 0.596435 -0.695152
v -2.097515 -0.133229 -0.955730
v -2.282588 0.698741 -1.133714
v -2.010432 -0.133229 -1.046282
v -2.195505 0.698741 -1.224266
v -1.201442 0.250460 -0.093981
v -1.386516 1.082429 -0.271965
v -1.114359 0.250460 -0.184532
v -1.299432 1.082429 -0.362517
vn 0.0529 -0.9873 -0.1499
vn 0.7276 0.1409 -0.6714
vn -0.0529 0.9873 0.1499
vn -0.7276 -0.1409 0.6714
vn 0.6839 -0.0735 0.7258
vn -0.6839 0.0735 -0.7258
vn -0.6887 -0.2949 -0.6623
vn 0.6932 -0.0000 -0.7208
vn 0.6887 0.2949 0.6623
vn -0.6932 -0.0000 0.7208
vn 0.2126 -0.9555 0.2044
vn -0.2126 0.9555 -0.2044
vt 0.875000 0.625000
vt 1.000000 0.625000
vt 1.000000 1.000000
vt 0.875000 1.000000
vt 0.875000 0.875000
vt 1.000000 0.875000
vt 0.875000 0.375000
vt 1.000000 0.375000
vt 0.000000 0.529529
vt 0.688480 0.529529
vt 0.690941 1.000000
vt 0.000000 1.000000
vt 0.875000 0.000000
vt 1.000000 0.000000
vt 0.000000 0.000000
vt 1.000000 0.500000
vt 0.000000 0.500000
vt 1.000000 0.125000
vt 0.000000 0.125000
vt 0.000000 0.375000
s 0
usemtl Material.002
f 25/31/13 26/32/13 28/33/13 27/34/13
f 27/31/14 28/32/14 32/33/14 31/34/14
f 31/31/15 32/32/15 30/33/15 29/34/15
f 29/31/16 30/32/16 26/33/16 25/34/16
f 27/35/17 31/36/17 29/33/17 25/34/17
f 32/35/18 28/36/18 26/33/18 30/34/18
usemtl Material
f 33/37/19 34/38/19 36/33/19 35/34/19
f 35/39/20 36/40/20 40/41/20 39/42/20
f 39/43/21 40/44/21 38/33/21 37/34/21
f 37/45/22 38/44/22 34/46/22 33/47/22
f 35/45/23 39/44/23 37/48/23 33/49/23
f 40/50/24 36/38/24 34/46/24 38/47/24
o Куб.001
v 1.053104 0.500574 0.159180
v 1.777470 0.578467 -0.609529
v 0.960308 0.518541 0.073557
v 1.684674 0.596435 -0.695152
v 1.044526 0.340414 0.134868
v 1.768892 0.418308 -0.633841
v 0.951730 0.358381 0.049245
v 1.676096 0.436275 -0.719464
v 1.201438 0.250459 -0.093980
v 1.386511 1.082429 -0.271964
v 1.114355 0.250459 -0.184532
v 1.299428 1.082429 -0.362516
v 2.097510 -0.133229 -0.955730
v 2.282584 0.698741 -1.133714
v 2.010427 -0.133229 -1.046282
v 2.195500 0.698741 -1.224266
vn 0.0529 0.9873 0.1499
vn -0.7276 0.1409 -0.6714
vn -0.0529 -0.9873 -0.1499
vn 0.7276 -0.1409 0.6714
vn -0.6839 -0.0735 0.7258
vn 0.6839 0.0735 -0.7258
vn -0.6887 0.2949 0.6623
vn -0.6932 -0.0000 -0.7208
vn 0.6887 -0.2949 -0.6623
vn 0.6932 -0.0000 0.7208
vn -0.2126 -0.9555 0.2044
vn 0.2126 0.9555 -0.2044
vt 0.875000 0.625000
vt 1.000000 0.625000
vt 1.000000 1.000000
vt 0.875000 1.000000
vt 0.875000 0.875000
vt 1.000000 0.875000
vt 0.875000 0.375000
vt 1.000000 0.375000
vt 0.000000 0.529529
vt 0.688480 0.529529
vt 0.690941 1.000000
vt 0.000000 1.000000
vt 0.875000 0.000000
vt 1.000000 0.000000
vt 0.000000 0.000000
vt 1.000000 0.500000
vt 0.000000 0.500000
vt 1.000000 0.125000
vt 0.000000 0.125000
vt 0.000000 0.375000
s 0
usemtl Material.003
f 41/51/25 42/52/25 44/53/25 43/54/25
f 43/51/26 44/52/26 48/53/26 47/54/26
f 47/51/27 48/52/27 46/53/27 45/54/27
f 45/51/28 46/52/28 42/53/28 41/54/28
f 43/55/29 47/56/29 45/53/29 41/54/29
f 48/55/30 44/56/30 42/53/30 46/54/30
usemtl Material.004
f 49/57/31 50/58/31 52/53/31 51/54/31
f 51/59/32 52/60/32 56/61/32 55/62/32
f 55/63/33 56/64/33 54/53/33 53/54/33
f 53/65/34 54/64/34 50/66/34 49/67/34
f 51/65/35 55/64/35 53/68/35 49/69/35
f 56/70/36 52/58/36 50/66/36 54/67/36
