# Blender 4.3.2
# www.blender.org
mtllib maps_reactor_task.mtl
o Cube
v 0.249761 0.249761 -0.249761
v 0.249761 -0.499761 -0.249761
v 0.249761 0.499761 0.249761
v 0.249761 -0.499761 0.249761
v -0.249761 0.249761 -0.249761
v -0.249761 -0.499761 -0.249761
v -0.249761 0.499761 0.249761
v -0.249761 -0.499761 0.249761
vn -0.0000 0.8943 -0.4476
vn -0.0000 -0.0000 1.0000
vn -1.0000 -0.0000 -0.0000
vn -0.0000 -1.0000 -0.0000
vn 1.0000 -0.0000 -0.0000
vn -0.0000 -0.0000 -1.0000
vt 0.000000 0.500000
vt 0.500000 0.500000
vt 0.500000 1.000000
vt 0.000000 1.000000
vt 1.000000 0.000000
vt 1.000000 1.000000
vt 0.500000 0.000000
vt 0.500000 1.000000
vt 0.500000 0.000000
vt 1.000000 1.000000
vt 0.000000 0.000000
vt 1.000000 0.000000
vt 0.500000 1.000000
vt 0.500000 0.000000
s 0
usemtl Material
f 1/1/1 5/2/1 7/3/1 3/4/1
f 4/5/2 3/6/2 7/3/2 8/7/2
f 8/8/3 7/9/3 5/5/3 6/10/3
f 6/11/4 2/7/4 4/2/4 8/1/4
f 2/5/5 1/6/5 3/3/5 4/7/5
f 6/12/6 5/6/6 1/13/6 2/14/6
