# Blender 4.3.2
# www.blender.org
mtllib maps_communication.mtl
o Куб
v 0.419623 -0.504768 0.384914
v 0.419623 0.273302 0.384914
v -0.358448 -0.504768 0.384914
v -0.358448 0.273302 0.384914
v 0.419623 -0.504768 -0.393157
v 0.419623 0.273302 -0.393157
v -0.358448 -0.504768 -0.393157
v -0.358448 0.273302 -0.393157
vn -0.0000 -0.0000 1.0000
vn -1.0000 -0.0000 -0.0000
vn -0.0000 -0.0000 -1.0000
vn 1.0000 -0.0000 -0.0000
vn -0.0000 -1.0000 -0.0000
vn -0.0000 1.0000 -0.0000
vt 0.500000 0.000000
vt 1.000000 0.000000
vt 1.000000 0.500000
vt 0.500000 0.500000
vt 0.500000 0.500000
vt 0.500000 -0.000000
vt 0.500000 -0.000000
vt 0.500000 0.500000
vt 0.000000 0.500000
vt -0.000000 0.000000
s 0
usemtl Material
f 1/1/1 2/2/1 4/3/1 3/4/1
f 3/5/2 4/6/2 8/2/2 7/3/2
f 7/7/3 8/8/3 6/9/3 5/10/3
f 5/1/4 6/2/4 2/3/4 1/4/4
f 3/1/5 7/2/5 5/3/5 1/4/5
f 8/1/6 4/2/6 2/3/6 6/4/6
o Куб.001
v 0.213534 0.204314 -0.227526
v 0.154586 0.186195 0.044824
v 0.209418 0.482971 -0.209878
v 0.150469 0.464851 0.062472
v 0.359488 0.204469 -0.195925
v 0.300539 0.186350 0.076425
v 0.355371 0.483126 -0.178277
v 0.296422 0.465006 0.094073
v 0.210688 0.294529 -0.167672
v 0.089911 0.257404 0.390334
v 0.209339 0.385883 -0.161886
v 0.088562 0.348759 0.396120
v 0.300163 0.294624 -0.148300
v 0.179386 0.257499 0.409707
v 0.298813 0.385978 -0.142514
v 0.178036 0.348854 0.415492
v 0.158163 0.259909 0.348152
v -0.415331 0.259301 0.223982
v 0.156779 0.353603 0.354086
v -0.416716 0.352995 0.229916
v 0.138343 0.253817 0.439725
v -0.435152 0.253208 0.315555
v 0.136959 0.347511 0.445659
v -0.436536 0.346902 0.321489
v -0.252506 0.385393 -0.261882
v -0.373283 0.348269 0.296124
v -0.251156 0.294039 -0.267668
v -0.371933 0.256914 0.290338
v -0.341980 0.385298 -0.281255
v -0.462757 0.348174 0.276751
v -0.340630 0.293944 -0.287040
v -0.461407 0.256819 0.270966
v -0.232924 0.482501 -0.305651
v -0.291872 0.464382 -0.033301
v -0.228807 0.203845 -0.323299
v -0.287755 0.185726 -0.050949
v -0.378877 0.482346 -0.337252
v -0.437825 0.464227 -0.064902
v -0.374760 0.203690 -0.354900
v -0.433708 0.185571 -0.082550
vn -0.9774 -0.0010 -0.2116
vn -0.0147 0.9979 0.0632
vn 0.9774 0.0010 0.2116
vn 0.0147 -0.9979 -0.0632
vn 0.2111 0.0649 -0.9753
vn -0.2111 -0.0649 0.9753
vt 0.000000 0.500000
vt 0.500000 0.500000
vt 0.500000 1.000000
vt 0.000000 1.000000
vt 0.687500 0.500000
vt 0.812500 0.500000
vt 0.812500 0.625000
vt 0.687500 0.625000
vt 0.812500 0.750000
vt 0.687500 0.750000
vt 0.812500 0.875000
vt 0.687500 0.875000
vt 0.812500 1.000000
vt 0.687500 1.000000
vt 0.562500 0.750000
vt 0.562500 0.875000
vt 0.937500 0.750000
vt 0.937500 0.875000
s 0
usemtl Material
f 9/11/7 10/12/7 12/13/7 11/14/7
f 11/11/8 12/12/8 16/13/8 15/14/8
f 15/11/9 16/12/9 14/13/9 13/14/9
f 13/11/10 14/12/10 10/13/10 9/14/10
f 11/11/11 15/12/11 13/13/11 9/14/11
f 16/11/12 12/12/12 10/13/12 14/14/12
f 17/15/7 18/16/7 20/17/7 19/18/7
f 19/18/8 20/17/8 24/19/8 23/20/8
f 23/20/9 24/19/9 22/21/9 21/22/9
f 21/22/10 22/21/10 18/23/10 17/24/10
f 19/25/11 23/20/11 21/22/11 17/26/11
f 24/19/12 20/27/12 18/28/12 22/21/12
f 25/15/11 26/16/11 28/17/11 27/18/11
f 27/18/8 28/17/8 32/19/8 31/20/8
f 31/20/12 32/19/12 30/21/12 29/22/12
f 29/22/10 30/21/10 26/23/10 25/24/10
f 27/25/9 31/20/9 29/22/9 25/26/9
f 32/19/7 28/27/7 26/28/7 30/21/7
f 33/15/9 34/16/9 36/17/9 35/18/9
f 35/18/10 36/17/10 40/19/10 39/20/10
f 39/20/7 40/19/7 38/21/7 37/22/7
f 37/22/8 38/21/8 34/23/8 33/24/8
f 35/25/11 39/20/11 37/22/11 33/26/11
f 40/19/12 36/27/12 34/28/12 38/21/12
f 41/11/9 42/12/9 44/13/9 43/14/9
f 43/11/10 44/12/10 48/13/10 47/14/10
f 47/11/7 48/12/7 46/13/7 45/14/7
f 45/11/8 46/12/8 42/13/8 41/14/8
f 43/11/11 47/12/11 45/13/11 41/14/11
f 48/11/12 44/12/12 42/13/12 46/14/12
