# Blender 4.3.2
# www.blender.org
mtllib maps_engine_correct.mtl
o Cube
v -0.250000 0.500000 -0.500000
v 0.000000 -0.350000 -0.500000
v -0.250000 0.500000 0.500000
v 0.000000 -0.350000 0.500000
v -0.500000 0.500000 -0.500000
v -0.500000 -0.350000 -0.500000
v -0.500000 0.500000 0.500000
v -0.500000 -0.350000 0.500000
vn -0.0000 1.0000 -0.0000
vn -0.0000 -0.0000 1.0000
vn -1.0000 -0.0000 -0.0000
vn -0.0000 -1.0000 -0.0000
vn 0.9594 0.2822 -0.0000
vn -0.0000 -0.0000 -1.0000
vt 0.500000 0.500000
vt 1.000000 0.500000
vt 1.000000 1.000000
vt 0.500000 1.000000
vt 0.500000 0.000000
vt 1.000000 0.000000
vt -0.000000 0.500000
vt 0.000000 -0.000000
vt 0.500000 0.593750
vt 0.500000 0.933594
vt 0.000000 0.933594
vt -0.000000 0.593750
s 0
usemtl Material
f 1/1/1 5/2/1 7/3/1 3/4/1
f 4/5/2 3/6/2 7/2/2 8/1/2
f 8/7/3 7/8/3 5/5/3 6/1/3
f 6/1/4 2/2/4 4/3/4 8/4/4
f 2/9/5 1/10/5 3/11/5 4/12/5
f 6/5/6 5/6/6 1/2/6 2/1/6
