# Blender 4.3.2
# www.blender.org
mtllib maps_button.mtl
o Cube.003
v -0.404000 0.204075 0.404000
v -0.404000 0.012075 0.404000
v -0.404000 0.204075 0.596000
v -0.404000 0.012075 0.596000
v -0.596000 0.204075 0.404000
v -0.596000 0.012075 0.404000
v -0.596000 0.204075 0.596000
v -0.596000 0.012075 0.596000
v 0.500000 0.031432 -0.500000
v 0.500000 -0.496568 -0.500000
v 0.500000 0.031432 1.500000
v 0.500000 -0.496568 1.500000
v -1.500000 0.031432 -0.500000
v -1.500000 -0.496568 -0.500000
v -1.500000 0.031432 1.500000
v -1.500000 -0.496568 1.500000
v -0.260000 0.433129 0.260000
v -0.260000 -0.046871 0.260000
v -0.260000 0.433129 0.740000
v -0.260000 -0.046871 0.740000
v -0.740000 0.433129 0.260000
v -0.740000 -0.046871 0.260000
v -0.740000 0.433129 0.740000
v -0.740000 -0.046871 0.740000
v -0.200000 0.159129 0.200000
v -0.200000 0.027129 0.200000
v -0.200000 0.159129 0.800000
v -0.200000 0.027129 0.800000
v -0.800000 0.159129 0.200000
v -0.800000 0.027129 0.200000
v -0.800000 0.159129 0.800000
v -0.800000 0.027129 0.800000
vn -0.0000 1.0000 -0.0000
vn -0.0000 -0.0000 1.0000
vn -1.0000 -0.0000 -0.0000
vn -0.0000 -1.0000 -0.0000
vn 1.0000 -0.0000 -0.0000
vn -0.0000 -0.0000 -1.0000
vt 0.750000 0.250000
vt 1.000000 0.250000
vt 1.000000 0.500000
vt 0.750000 0.500000
vt 0.000000 0.500000
vt 0.500000 0.500000
vt 0.500000 1.000000
vt 0.000000 1.000000
vt 0.500000 0.250000
vt 1.000000 1.000000
vt 1.000000 0.125000
vt 0.500000 0.125000
vt 1.000000 0.125000
vt 1.000000 0.250000
vt 0.500000 0.250000
vt 0.500000 0.125000
s 0
usemtl Material
f 1/1/1 5/2/1 7/3/1 3/4/1
f 4/1/2 3/2/2 7/3/2 8/4/2
f 8/1/3 7/2/3 5/3/3 6/4/3
f 6/1/4 2/2/4 4/3/4 8/4/4
f 2/1/5 1/2/5 3/3/5 4/4/5
f 6/1/6 5/2/6 1/3/6 2/4/6
f 9/5/1 13/6/1 15/7/1 11/8/1
f 12/5/2 11/6/2 15/7/2 16/8/2
f 16/5/3 15/6/3 13/7/3 14/8/3
f 14/5/4 10/6/4 12/7/4 16/8/4
f 10/7/5 9/8/5 11/5/5 12/6/5
f 14/5/6 13/6/6 9/7/6 10/8/6
f 17/9/1 21/1/1 23/4/1 19/6/1
f 20/9/2 19/1/2 23/4/2 24/6/2
f 24/9/3 23/1/3 21/4/3 22/6/3
f 22/9/4 18/1/4 20/4/4 24/6/4
f 18/9/5 17/1/5 19/4/5 20/6/5
f 22/9/6 21/1/6 17/4/6 18/6/6
f 25/6/1 29/3/1 31/10/1 27/7/1
f 28/11/2 27/2/2 31/9/2 32/12/2
f 32/11/3 31/2/3 29/9/3 30/12/3
f 30/10/4 26/7/4 28/6/4 32/3/4
f 26/13/5 25/14/5 27/15/5 28/16/5
f 30/11/6 29/2/6 25/9/6 26/12/6
