# Blender 4.3.2
# www.blender.org
mtllib maps_big_box.mtl
o Cube
v 1.500000 2.500000 -1.500000
v 1.500000 -0.500000 -1.500000
v 1.500000 2.500000 1.500000
v 1.500000 -0.500000 1.500000
v -1.500000 2.500000 -1.500000
v -1.500000 -0.500000 -1.500000
v -1.500000 2.500000 1.500000
v -1.500000 -0.500000 1.500000
vn -0.0000 1.0000 -0.0000
vn -0.0000 -0.0000 1.0000
vn -1.0000 -0.0000 -0.0000
vn -0.0000 -1.0000 -0.0000
vn 1.0000 -0.0000 -0.0000
vn -0.0000 -0.0000 -1.0000
vt 0.500000 1.000000
vt 0.000000 1.000000
vt 0.000000 0.000000
vt 0.500000 0.000000
vt 1.000000 -0.000000
vt 1.000000 1.000000
vt 0.500000 1.000000
vt 0.500000 0.000000
vt 1.000000 0.000000
vt 1.000000 1.000000
vt 0.500000 1.000000
vt 0.500000 -0.000000
vt 1.000000 0.000000
vt 1.000000 1.000000
s 0
usemtl Material
f 1/1/1 5/2/1 7/3/1 3/4/1
f 4/5/2 3/6/2 7/7/2 8/8/2
f 8/9/3 7/10/3 5/11/3 6/12/3
f 6/3/4 2/4/4 4/1/4 8/2/4
f 2/13/5 1/14/5 3/11/5 4/12/5
f 6/9/6 5/10/6 1/11/6 2/12/6
