# Blender 4.3.2
# www.blender.org
mtllib maps_medbay_scan.mtl
o Cube
v 1.000000 0.000000 -1.000000
v 1.000000 -0.500000 -1.000000
v 1.000000 0.000000 1.000000
v 1.000000 -0.500000 1.000000
v -1.000000 0.000000 -1.000000
v -1.000000 -0.500000 -1.000000
v -1.000000 0.000000 1.000000
v -1.000000 -0.500000 1.000000
v 1.414214 -0.250000 -0.000000
v 1.414214 -0.500000 -0.000000
v 0.000000 -0.250000 1.414214
v 0.000000 -0.500000 1.414214
v -0.000000 -0.250000 -1.414214
v -0.000000 -0.500000 -1.414214
v -1.414214 -0.250000 0.000000
v -1.414214 -0.500000 0.000000
vn -0.0000 1.0000 -0.0000
vn -0.0000 -0.0000 1.0000
vn -1.0000 -0.0000 -0.0000
vn -0.0000 -1.0000 -0.0000
vn 1.0000 -0.0000 -0.0000
vn -0.0000 -0.0000 -1.0000
vn -0.7071 -0.0000 0.7071
vn -0.7071 -0.0000 -0.7071
vn 0.7071 -0.0000 0.7071
vn 0.7071 -0.0000 -0.7071
vt 0.000000 0.000000
vt 1.000000 0.000000
vt 1.000000 1.000000
vt 0.000000 1.000000
vt 1.000000 0.875000
vt 0.000000 1.000000
vt 0.000000 0.875000
vt 1.000000 0.875000
vt 1.000000 1.000000
vt 0.000000 1.000000
vt 0.000000 0.875000
vt 1.000000 0.875000
vt -0.000000 0.875000
vt 1.000000 0.125000
vt 0.000000 0.125000
vt 1.000000 -0.000000
s 0
usemtl Material
f 1/1/1 5/2/1 7/3/1 3/4/1
f 4/5/2 3/3/2 7/6/2 8/7/2
f 8/8/3 7/9/3 5/10/3 6/11/3
f 6/1/4 2/2/4 4/3/4 8/4/4
f 2/5/5 1/3/5 3/4/5 4/7/5
f 6/12/6 5/3/6 1/4/6 2/13/6
f 9/1/1 13/2/1 15/3/1 11/4/1
f 12/2/7 11/14/7 15/15/7 16/1/7
f 16/16/8 15/14/8 13/15/8 14/1/8
f 14/1/4 10/2/4 12/3/4 16/4/4
f 10/16/9 9/14/9 11/15/9 12/1/9
f 14/16/10 13/14/10 9/15/10 10/1/10
