# Blender 4.3.2
# www.blender.org
mtllib maps_canister.mtl
o Цилиндр
v -0.283111 0.331143 -0.050000
v -0.383187 0.504304 -0.050000
v -0.274665 0.336024 -0.049039
v -0.374741 0.509185 -0.049039
v -0.266544 0.340718 -0.046194
v -0.366620 0.513879 -0.046194
v -0.259060 0.345043 -0.041573
v -0.359136 0.518204 -0.041573
v -0.252500 0.348834 -0.035355
v -0.352576 0.521996 -0.035355
v -0.247116 0.351946 -0.027779
v -0.347192 0.525107 -0.027779
v -0.243116 0.354258 -0.019134
v -0.343192 0.527419 -0.019134
v -0.240652 0.355682 -0.009755
v -0.340728 0.528843 -0.009755
v -0.239821 0.356162 0.000000
v -0.339897 0.529323 0.000000
v -0.240652 0.355682 0.009755
v -0.340728 0.528843 0.009755
v -0.243116 0.354258 0.019134
v -0.343192 0.527419 0.019134
v -0.247116 0.351946 0.027779
v -0.347192 0.525107 0.027779
v -0.252500 0.348834 0.035355
v -0.352576 0.521996 0.035355
v -0.259060 0.345043 0.041573
v -0.359136 0.518204 0.041573
v -0.266544 0.340718 0.046194
v -0.366620 0.513879 0.046194
v -0.274665 0.336024 0.049039
v -0.374741 0.509185 0.049039
v -0.283111 0.331143 0.050000
v -0.383187 0.504304 0.050000
v -0.291556 0.326262 0.049039
v -0.391632 0.499423 0.049039
v -0.299677 0.321569 0.046194
v -0.399753 0.494730 0.046194
v -0.307162 0.317243 0.041573
v -0.407238 0.490405 0.041573
v -0.313722 0.313452 0.035355
v -0.413798 0.486613 0.035355
v -0.319106 0.310341 0.027779
v -0.419182 0.483502 0.027779
v -0.323106 0.308029 0.019134
v -0.423182 0.481190 0.019134
v -0.325569 0.306605 0.009755
v -0.425645 0.479766 0.009755
v -0.326401 0.306124 0.000000
v -0.426477 0.479285 0.000000
v -0.325569 0.306605 -0.009755
v -0.425645 0.479766 -0.009755
v -0.323106 0.308029 -0.019134
v -0.423182 0.481190 -0.019134
v -0.319106 0.310341 -0.027779
v -0.419182 0.483502 -0.027779
v -0.313722 0.313452 -0.035355
v -0.413798 0.486613 -0.035355
v -0.307162 0.317243 -0.041573
v -0.407238 0.490405 -0.041573
v -0.299677 0.321569 -0.046194
v -0.399753 0.494730 -0.046194
v -0.291556 0.326262 -0.049039
v -0.391632 0.499423 -0.049039
v -0.369868 0.488679 -0.050000
v -0.533748 0.603322 -0.050000
v -0.364276 0.496672 -0.049039
v -0.528157 0.611315 -0.049039
v -0.358899 0.504357 -0.046194
v -0.522780 0.619001 -0.046194
v -0.353944 0.511440 -0.041573
v -0.517825 0.626084 -0.041573
v -0.349601 0.517649 -0.035355
v -0.513482 0.632292 -0.035355
v -0.346037 0.522744 -0.027779
v -0.509918 0.637388 -0.027779
v -0.343388 0.526530 -0.019134
v -0.507269 0.641174 -0.019134
v -0.341757 0.528862 -0.009755
v -0.505638 0.643505 -0.009755
v -0.341207 0.529649 0.000000
v -0.505087 0.644292 0.000000
v -0.341757 0.528862 0.009755
v -0.505638 0.643505 0.009755
v -0.343388 0.526530 0.019134
v -0.507269 0.641174 0.019134
v -0.346037 0.522744 0.027779
v -0.509918 0.637388 0.027779
v -0.349601 0.517649 0.035355
v -0.513482 0.632292 0.035355
v -0.353944 0.511440 0.041573
v -0.517825 0.626084 0.041573
v -0.358899 0.504357 0.046194
v -0.522780 0.619001 0.046194
v -0.364276 0.496672 0.049039
v -0.528157 0.611315 0.049039
v -0.369868 0.488679 0.050000
v -0.533748 0.603322 0.050000
v -0.375459 0.480686 0.049039
v -0.539340 0.595329 0.049039
v -0.380836 0.473000 0.046194
v -0.544716 0.587643 0.046194
v -0.385791 0.465917 0.041573
v -0.549671 0.580560 0.041573
v -0.390134 0.459708 0.035355
v -0.554015 0.574352 0.035355
v -0.393698 0.454613 0.027779
v -0.557579 0.569257 0.027779
v -0.396347 0.450827 0.019134
v -0.560227 0.565471 0.019134
v -0.397978 0.448496 0.009755
v -0.561858 0.563139 0.009755
v -0.398528 0.447708 0.000000
v -0.562409 0.562352 0.000000
v -0.397978 0.448496 -0.009755
v -0.561858 0.563139 -0.009755
v -0.396347 0.450827 -0.019134
v -0.560227 0.565471 -0.019134
v -0.393698 0.454613 -0.027779
v -0.557579 0.569257 -0.027779
v -0.390134 0.459708 -0.035355
v -0.554015 0.574352 -0.035355
v -0.385791 0.465917 -0.041573
v -0.549671 0.580560 -0.041573
v -0.380836 0.473000 -0.046194
v -0.544716 0.587643 -0.046194
v -0.375459 0.480686 -0.049039
v -0.539340 0.595329 -0.049039
v 0.407582 -0.480507 -0.164268
v 0.390973 -0.501323 -0.157042
v 0.390973 -0.501323 0.157042
v 0.407582 -0.480507 0.164268
v -0.347540 -0.480507 -0.164268
v -0.330931 -0.501323 -0.157042
v -0.330931 -0.501323 0.157042
v -0.347540 -0.480507 0.164268
v 0.337998 0.417940 -0.141328
v 0.322587 0.416549 -0.144441
v 0.315943 0.428229 -0.138373
v 0.331375 0.428581 -0.135127
v 0.309006 0.440975 -0.127691
v 0.307060 0.445077 -0.120533
v 0.323512 0.440975 -0.121380
v 0.327740 0.435258 -0.129531
v 0.354855 0.417940 -0.133994
v 0.340603 0.428581 -0.131112
v 0.348064 0.428229 -0.124398
v 0.362012 0.416549 -0.127289
v 0.358485 0.370483 -0.158420
v 0.345396 0.387963 -0.154365
v 0.363026 0.386573 -0.152217
v 0.374840 0.373150 -0.155255
v 0.379883 0.386572 -0.144883
v 0.384820 0.387963 -0.137212
v 0.394140 0.370483 -0.142907
v 0.386866 0.373150 -0.150023
v 0.386269 0.339712 -0.162844
v 0.393810 0.352141 -0.158276
v 0.404309 0.339712 -0.154995
v 0.407582 0.319092 -0.164268
v 0.354855 0.417940 0.133994
v 0.362012 0.416549 0.127289
v 0.348064 0.428229 0.124398
v 0.340603 0.428581 0.131112
v 0.323512 0.440975 0.121380
v 0.307060 0.445077 0.120533
v 0.309006 0.440975 0.127691
v 0.327740 0.435258 0.129531
v 0.337998 0.417940 0.141328
v 0.331375 0.428581 0.135127
v 0.315943 0.428229 0.138373
v 0.322587 0.416549 0.144441
v 0.394140 0.370483 0.142907
v 0.384820 0.387963 0.137212
v 0.379883 0.386572 0.144883
v 0.386866 0.373150 0.150023
v 0.363026 0.386573 0.152217
v 0.345396 0.387963 0.154365
v 0.358485 0.370483 0.158420
v 0.374840 0.373150 0.155255
v 0.404309 0.339712 0.154995
v 0.393810 0.352141 0.158276
v 0.386269 0.339712 0.162844
v 0.407582 0.319092 0.164268
v -0.263470 0.440975 -0.121380
v -0.247018 0.445077 -0.120533
v -0.248964 0.440975 -0.127691
v -0.267699 0.435258 -0.129531
v -0.255902 0.428229 -0.138373
v -0.262546 0.416549 -0.144441
v -0.277956 0.417940 -0.141328
v -0.271333 0.428581 -0.135127
v -0.288023 0.428229 -0.124398
v -0.280562 0.428581 -0.131112
v -0.294813 0.417940 -0.133994
v -0.301970 0.416549 -0.127289
v -0.302984 0.386573 -0.152217
v -0.285354 0.387963 -0.154365
v -0.298443 0.370483 -0.158420
v -0.314798 0.373150 -0.155255
v -0.326228 0.339712 -0.162844
v -0.347540 0.319092 -0.164268
v -0.344268 0.339712 -0.154995
v -0.333768 0.352141 -0.158276
v -0.319841 0.386573 -0.144883
v -0.326825 0.373150 -0.150023
v -0.334098 0.370483 -0.142907
v -0.324778 0.387963 -0.137212
v -0.248964 0.440975 0.127691
v -0.247018 0.445077 0.120533
v -0.263470 0.440975 0.121380
v -0.267699 0.435258 0.129531
v -0.288023 0.428229 0.124398
v -0.301970 0.416549 0.127289
v -0.294813 0.417940 0.133994
v -0.280562 0.428581 0.131112
v -0.255902 0.428229 0.138373
v -0.271333 0.428581 0.135127
v -0.277956 0.417940 0.141328
v -0.262546 0.416549 0.144441
v -0.319841 0.386573 0.144883
v -0.324778 0.387963 0.137212
v -0.334098 0.370483 0.142907
v -0.326825 0.373150 0.150023
v -0.344268 0.339712 0.154995
v -0.347540 0.319092 0.164268
v -0.326228 0.339712 0.162844
v -0.333768 0.352141 0.158276
v -0.302984 0.386573 0.152217
v -0.314798 0.373150 0.155255
v -0.298443 0.370483 0.158420
v -0.285354 0.387963 0.154365
vn 0.0849 0.0490 -0.9952
vn 0.2513 0.1453 -0.9569
vn 0.4081 0.2359 -0.8819
vn 0.5493 0.3174 -0.7730
vn 0.6693 0.3868 -0.6344
vn 0.7636 0.4413 -0.4714
vn 0.8285 0.4788 -0.2903
vn 0.8616 0.4980 -0.0980
vn 0.8616 0.4980 0.0980
vn 0.8285 0.4788 0.2903
vn 0.7636 0.4413 0.4714
vn 0.6693 0.3868 0.6344
vn 0.5493 0.3174 0.7730
vn 0.4081 0.2359 0.8819
vn 0.2513 0.1453 0.9569
vn 0.0849 0.0490 0.9952
vn -0.0849 -0.0490 0.9952
vn -0.2513 -0.1453 0.9569
vn -0.4081 -0.2359 0.8819
vn -0.5493 -0.3174 0.7730
vn -0.6693 -0.3868 0.6344
vn -0.7636 -0.4413 0.4714
vn -0.8285 -0.4788 0.2903
vn -0.8616 -0.4980 0.0980
vn -0.8616 -0.4980 -0.0980
vn -0.8285 -0.4788 -0.2903
vn -0.7636 -0.4413 -0.4714
vn -0.6693 -0.3868 -0.6344
vn -0.5493 -0.3174 -0.7730
vn -0.4081 -0.2359 -0.8819
vn -0.5004 0.8658 -0.0000
vn -0.2513 -0.1453 -0.9569
vn -0.0849 -0.0490 -0.9952
vn 0.5004 -0.8658 -0.0000
vn 0.0562 0.0803 -0.9952
vn 0.1664 0.2379 -0.9569
vn 0.2702 0.3863 -0.8819
vn 0.3636 0.5198 -0.7730
vn 0.4431 0.6334 -0.6344
vn 0.5055 0.7226 -0.4714
vn 0.5485 0.7841 -0.2903
vn 0.5705 0.8155 -0.0980
vn 0.5705 0.8155 0.0980
vn 0.5485 0.7841 0.2903
vn 0.5055 0.7226 0.4714
vn 0.4431 0.6334 0.6344
vn 0.3636 0.5198 0.7730
vn 0.2702 0.3863 0.8819
vn 0.1664 0.2379 0.9569
vn 0.0562 0.0803 0.9952
vn -0.0562 -0.0803 0.9952
vn -0.1664 -0.2379 0.9569
vn -0.2702 -0.3863 0.8819
vn -0.3636 -0.5198 0.7730
vn -0.4431 -0.6334 0.6344
vn -0.5055 -0.7226 0.4714
vn -0.5485 -0.7841 0.2903
vn -0.5705 -0.8155 0.0980
vn -0.5705 -0.8155 -0.0980
vn -0.5485 -0.7841 -0.2903
vn -0.5055 -0.7226 -0.4714
vn -0.4431 -0.6334 -0.6344
vn -0.3636 -0.5198 -0.7730
vn -0.2702 -0.3863 -0.8819
vn -0.8194 0.5732 -0.0000
vn -0.1664 -0.2379 -0.9569
vn -0.0562 -0.0803 -0.9952
vn 0.8194 -0.5732 -0.0000
vn 0.3365 0.5370 0.7735
vn -0.0000 -0.0000 -1.0000
vn -0.3580 0.4415 -0.8228
vn -0.4607 0.8875 -0.0000
vn 0.7817 0.6237 -0.0000
vn -0.2841 0.7020 0.6531
vn -0.0000 0.1423 -0.9898
vn -0.0000 -1.0000 -0.0000
vn -0.7817 -0.6237 -0.0000
vn -0.0000 -0.3279 -0.9447
vn -0.0000 -0.3279 0.9447
vn 0.7817 -0.6237 -0.0000
vn 0.3580 0.4415 0.8228
vn -0.0000 0.3279 -0.9447
vn 0.9495 0.3138 -0.0000
vn -0.0000 0.6423 0.7664
vn -0.0000 0.1423 0.9898
vn -0.3365 0.5370 -0.7735
vn -0.9495 0.3138 -0.0000
vn -0.3365 0.5370 0.7735
vn 0.2841 0.7020 0.6531
vn -0.0000 0.3279 0.9447
vn -0.3580 0.4415 0.8228
vn -0.0000 -0.0000 1.0000
vn 0.2841 0.7020 -0.6531
vn -0.0000 1.0000 -0.0000
vn 1.0000 -0.0000 -0.0000
vn -0.2841 0.7020 -0.6531
vn -0.7817 0.6237 -0.0000
vn -1.0000 -0.0000 -0.0000
vn 0.4607 0.8875 -0.0000
vn 0.3580 0.4415 -0.8228
vn -0.0000 0.6423 -0.7664
vn 0.1407 0.5398 -0.8300
vn 0.2040 0.8594 -0.4689
vn 0.4977 0.7441 -0.4456
vn 0.1343 0.3232 -0.9367
vn 0.6738 0.5344 -0.5103
vn 0.3786 0.3155 -0.8701
vn 0.4977 0.7441 0.4456
vn 0.2040 0.8594 0.4689
vn 0.1407 0.5398 0.8300
vn 0.6738 0.5344 0.5103
vn 0.1343 0.3232 0.9367
vn 0.3786 0.3155 0.8701
vn -0.2040 0.8594 -0.4689
vn -0.1407 0.5398 -0.8300
vn -0.4977 0.7441 -0.4456
vn -0.1343 0.3232 -0.9367
vn -0.3786 0.3155 -0.8701
vn -0.6738 0.5344 -0.5103
vn -0.2040 0.8594 0.4689
vn -0.4977 0.7441 0.4456
vn -0.1407 0.5398 0.8300
vn -0.6738 0.5344 0.5103
vn -0.3786 0.3155 0.8701
vn -0.1343 0.3232 0.9367
vn 0.3142 0.6163 -0.7221
vn 0.1363 0.6789 -0.7215
vn 0.3871 0.8372 -0.3864
vn 0.1414 0.2648 -0.9539
vn 0.3483 0.4878 -0.8005
vn 0.7036 0.4489 -0.5509
vn 0.3142 0.6163 0.7221
vn 0.3871 0.8372 0.3864
vn 0.1363 0.6789 0.7215
vn 0.7036 0.4489 0.5509
vn 0.3483 0.4878 0.8005
vn 0.1414 0.2648 0.9539
vn -0.3871 0.8372 -0.3864
vn -0.1363 0.6789 -0.7215
vn -0.3142 0.6163 -0.7221
vn -0.3483 0.4878 -0.8005
vn -0.1414 0.2648 -0.9539
vn -0.7036 0.4489 -0.5509
vn -0.1363 0.6789 0.7215
vn -0.3871 0.8372 0.3864
vn -0.3142 0.6163 0.7221
vn -0.3483 0.4878 0.8005
vn -0.7036 0.4489 0.5509
vn -0.1414 0.2648 0.9539
vn 0.5876 0.6405 0.4944
vn 0.1424 0.4241 0.8943
vn -0.0000 0.8677 0.4972
vn -0.0000 0.4610 0.8874
vn -0.5877 0.6405 0.4944
vn -0.1424 0.4241 0.8943
vn -0.0000 0.0689 0.9976
vn -0.0000 0.2260 0.9741
vn 0.1424 0.4241 -0.8943
vn 0.5876 0.6405 -0.4944
vn 0.2419 0.9703 -0.0000
vn 0.6420 0.7667 -0.0000
vn 0.9876 0.1567 -0.0000
vn 0.8824 0.4705 -0.0000
vn -0.2419 0.9703 -0.0000
vn -0.6420 0.7667 -0.0000
vn -0.1424 0.4241 -0.8943
vn -0.5877 0.6405 -0.4944
vn -0.9876 0.1567 -0.0000
vn -0.8824 0.4705 -0.0000
vn -0.0000 0.8677 -0.4972
vn -0.0000 0.4610 -0.8874
vn -0.0000 0.0689 -0.9976
vn -0.0000 0.2260 -0.9741
vn 0.3365 0.5370 -0.7735
vt 0.991310 0.992688
vt 0.508690 0.992688
vt 0.508690 0.988372
vt 0.991310 0.988372
vt 0.508690 0.984056
vt 0.991310 0.984056
vt 0.508690 0.979740
vt 0.991310 0.979740
vt 0.508690 0.975425
vt 0.991310 0.975425
vt 0.508690 0.971108
vt 0.991310 0.971108
vt 0.508690 0.966793
vt 0.991310 0.966793
vt 0.508690 0.962477
vt 0.991310 0.962477
vt 0.508690 0.958161
vt 0.991310 0.958161
vt 0.508690 0.953845
vt 0.991310 0.953845
vt 0.508690 0.949529
vt 0.991310 0.949529
vt 0.508690 0.945213
vt 0.991310 0.945213
vt 0.508690 0.940897
vt 0.991310 0.940897
vt 0.508690 0.936581
vt 0.991310 0.936581
vt 0.508690 0.932265
vt 0.991310 0.932265
vt 0.508690 0.927949
vt 0.991310 0.927949
vt 0.508690 0.923633
vt 0.991310 0.923633
vt 0.508690 0.919317
vt 0.991310 0.919317
vt 0.508690 0.915001
vt 0.991310 0.915001
vt 0.508690 0.910685
vt 0.991310 0.910685
vt 0.508690 0.906369
vt 0.991310 0.906369
vt 0.508690 0.902053
vt 0.991310 0.902053
vt 0.508690 0.897737
vt 0.991310 0.897737
vt 0.508690 0.893422
vt 0.991310 0.893422
vt 0.508690 0.889106
vt 0.991310 0.889106
vt 0.508690 0.884790
vt 0.991310 0.884790
vt 0.508690 0.880474
vt 0.991310 0.880474
vt 0.508690 0.876158
vt 0.991310 0.876158
vt 0.508690 0.871842
vt 0.991310 0.871842
vt 0.508690 0.867526
vt 0.991310 0.867526
vt 0.508690 0.863210
vt 0.991310 0.863210
vt 0.610276 0.988247
vt 0.601237 0.989521
vt 0.592198 0.988247
vt 0.583506 0.984475
vt 0.575496 0.978349
vt 0.568475 0.970104
vt 0.562714 0.960058
vt 0.558432 0.948597
vt 0.555795 0.936161
vt 0.554905 0.923228
vt 0.555795 0.910295
vt 0.558432 0.897859
vt 0.562714 0.886398
vt 0.568475 0.876352
vt 0.575496 0.868107
vt 0.583506 0.861981
vt 0.592198 0.858209
vt 0.601237 0.856935
vt 0.610276 0.858209
vt 0.618967 0.861981
vt 0.626977 0.868107
vt 0.633998 0.876352
vt 0.639760 0.886398
vt 0.644042 0.897859
vt 0.646678 0.910295
vt 0.647568 0.923228
vt 0.646678 0.936161
vt 0.644042 0.948597
vt 0.639760 0.960058
vt 0.633998 0.970104
vt 0.626977 0.978349
vt 0.618967 0.984475
vt 0.508690 0.858894
vt 0.991310 0.858894
vt 0.508690 0.854578
vt 0.991310 0.854578
vt 0.600851 0.989521
vt 0.609890 0.988247
vt 0.618581 0.984475
vt 0.626591 0.978349
vt 0.633612 0.970104
vt 0.639374 0.960058
vt 0.643656 0.948597
vt 0.646292 0.936161
vt 0.647182 0.923228
vt 0.646292 0.910295
vt 0.643656 0.897859
vt 0.639374 0.886398
vt 0.633612 0.876352
vt 0.626591 0.868107
vt 0.618581 0.861981
vt 0.609890 0.858209
vt 0.600851 0.856935
vt 0.591812 0.858209
vt 0.583120 0.861981
vt 0.575110 0.868107
vt 0.568089 0.876352
vt 0.562327 0.886398
vt 0.558046 0.897859
vt 0.555409 0.910295
vt 0.554519 0.923228
vt 0.555409 0.936161
vt 0.558046 0.948597
vt 0.562327 0.960058
vt 0.568089 0.970104
vt 0.575110 0.978349
vt 0.583120 0.984475
vt 0.591812 0.988247
vt 0.125000 0.875000
s 0
usemtl Material
f 1/1/1 2/2/1 4/3/1 3/4/1
f 3/4/2 4/3/2 6/5/2 5/6/2
f 5/6/3 6/5/3 8/7/3 7/8/3
f 7/8/4 8/7/4 10/9/4 9/10/4
f 9/10/5 10/9/5 12/11/5 11/12/5
f 11/12/6 12/11/6 14/13/6 13/14/6
f 13/14/7 14/13/7 16/15/7 15/16/7
f 15/16/8 16/15/8 18/17/8 17/18/8
f 17/18/9 18/17/9 20/19/9 19/20/9
f 19/20/10 20/19/10 22/21/10 21/22/10
f 21/22/11 22/21/11 24/23/11 23/24/11
f 23/24/12 24/23/12 26/25/12 25/26/12
f 25/26/13 26/25/13 28/27/13 27/28/13
f 27/28/14 28/27/14 30/29/14 29/30/14
f 29/30/15 30/29/15 32/31/15 31/32/15
f 31/32/16 32/31/16 34/33/16 33/34/16
f 33/34/17 34/33/17 36/35/17 35/36/17
f 35/36/18 36/35/18 38/37/18 37/38/18
f 37/38/19 38/37/19 40/39/19 39/40/19
f 39/40/20 40/39/20 42/41/20 41/42/20
f 41/42/21 42/41/21 44/43/21 43/44/21
f 43/44/22 44/43/22 46/45/22 45/46/22
f 45/46/23 46/45/23 48/47/23 47/48/23
f 47/48/24 48/47/24 50/49/24 49/50/24
f 49/50/25 50/49/25 52/51/25 51/52/25
f 51/52/26 52/51/26 54/53/26 53/54/26
f 53/54/27 54/53/27 56/55/27 55/56/27
f 55/56/28 56/55/28 58/57/28 57/58/28
f 57/58/29 58/57/29 60/59/29 59/60/29
f 59/60/30 60/59/30 62/61/30 61/62/30
f 4/63/31 2/64/31 64/65/31 62/66/31 60/67/31 58/68/31 56/69/31 54/70/31 52/71/31 50/72/31 48/73/31 46/74/31 44/75/31 42/76/31 40/77/31 38/78/31 36/79/31 34/80/31 32/81/31 30/82/31 28/83/31 26/84/31 24/85/31 22/86/31 20/87/31 18/88/31 16/89/31 14/90/31 12/91/31 10/92/31 8/93/31 6/94/31
f 61/62/32 62/61/32 64/95/32 63/96/32
f 63/96/33 64/95/33 2/97/33 1/98/33
f 1/99/34 3/100/34 5/101/34 7/102/34 9/103/34 11/104/34 13/105/34 15/106/34 17/107/34 19/108/34 21/109/34 23/110/34 25/111/34 27/112/34 29/113/34 31/114/34 33/115/34 35/116/34 37/117/34 39/118/34 41/119/34 43/120/34 45/121/34 47/122/34 49/123/34 51/124/34 53/125/34 55/126/34 57/127/34 59/128/34 61/129/34 63/130/34
f 65/1/35 66/2/35 68/3/35 67/4/35
f 67/4/36 68/3/36 70/5/36 69/6/36
f 69/6/37 70/5/37 72/7/37 71/8/37
f 71/8/38 72/7/38 74/9/38 73/10/38
f 73/10/39 74/9/39 76/11/39 75/12/39
f 75/12/40 76/11/40 78/13/40 77/14/40
f 77/14/41 78/13/41 80/15/41 79/16/41
f 79/16/42 80/15/42 82/17/42 81/18/42
f 81/18/43 82/17/43 84/19/43 83/20/43
f 83/20/44 84/19/44 86/21/44 85/22/44
f 85/22/45 86/21/45 88/23/45 87/24/45
f 87/24/46 88/23/46 90/25/46 89/26/46
f 89/26/47 90/25/47 92/27/47 91/28/47
f 91/28/48 92/27/48 94/29/48 93/30/48
f 93/30/49 94/29/49 96/31/49 95/32/49
f 95/32/50 96/31/50 98/33/50 97/34/50
f 97/34/51 98/33/51 100/35/51 99/36/51
f 99/36/52 100/35/52 102/37/52 101/38/52
f 101/38/53 102/37/53 104/39/53 103/40/53
f 103/40/54 104/39/54 106/41/54 105/42/54
f 105/42/55 106/41/55 108/43/55 107/44/55
f 107/44/56 108/43/56 110/45/56 109/46/56
f 109/46/57 110/45/57 112/47/57 111/48/57
f 111/48/58 112/47/58 114/49/58 113/50/58
f 113/50/59 114/49/59 116/51/59 115/52/59
f 115/52/60 116/51/60 118/53/60 117/54/60
f 117/54/61 118/53/61 120/55/61 119/56/61
f 119/56/62 120/55/62 122/57/62 121/58/62
f 121/58/63 122/57/63 124/59/63 123/60/63
f 123/60/64 124/59/64 126/61/64 125/62/64
f 68/63/65 66/64/65 128/65/65 126/66/65 124/67/65 122/68/65 120/69/65 118/70/65 116/71/65 114/72/65 112/73/65 110/74/65 108/75/65 106/76/65 104/77/65 102/78/65 100/79/65 98/80/65 96/81/65 94/82/65 92/83/65 90/84/65 88/85/65 86/86/65 84/87/65 82/88/65 80/89/65 78/90/65 76/91/65 74/92/65 72/93/65 70/94/65
f 125/62/66 126/61/66 128/95/66 127/96/66
f 127/96/67 128/95/67 66/97/67 65/98/67
f 65/99/68 67/100/68 69/101/68 71/102/68 73/103/68 75/104/68 77/105/68 79/106/68 81/107/68 83/108/68 85/109/68 87/110/68 89/111/68 91/112/68 93/113/68 95/114/68 97/115/68 99/116/68 101/117/68 103/118/68 105/119/68 107/120/68 109/121/68 111/122/68 113/123/68 115/124/68 117/125/68 119/126/68 121/127/68 123/128/68 125/129/68 127/130/68
f 175/131/69 161/131/69 169/131/69 177/131/69
f 133/131/70 202/131/70 160/131/70 129/131/70
f 200/131/71 204/131/71 206/131/71
f 211/131/72 185/131/72 193/131/72 213/131/72
f 148/131/73 162/131/73 174/131/73 154/131/73
f 212/131/74 216/131/74 218/131/74
f 157/131/75 201/131/75 199/131/75 149/131/75
f 134/131/76 130/131/76 131/131/76 135/131/76
f 134/131/77 135/131/77 136/131/77 133/131/77
f 130/131/78 134/131/78 133/131/78 129/131/78
f 135/131/79 131/131/79 132/131/79 136/131/79
f 131/131/80 130/131/80 129/131/80 132/131/80
f 176/131/81 180/131/81 182/131/81
f 190/131/82 138/131/82 150/131/82 198/131/82
f 181/131/83 159/131/83 155/131/83 173/131/83
f 167/131/84 209/131/84 217/131/84 171/131/84
f 227/131/85 183/131/85 179/131/85 231/131/85
f 191/131/86 197/131/86 205/131/86 195/131/86
f 203/131/87 225/131/87 223/131/87 207/131/87
f 215/131/88 221/131/88 229/131/88 219/131/88
f 164/131/89 168/131/89 170/131/89
f 172/131/90 220/131/90 232/131/90 178/131/90
f 224/131/91 228/131/91 230/131/91
f 132/131/92 184/131/92 226/131/92 136/131/92
f 140/131/93 144/131/93 146/131/93
f 142/131/94 186/131/94 210/131/94 166/131/94
f 129/131/95 160/131/95 184/131/95 132/131/95
f 188/131/96 192/131/96 194/131/96
f 214/131/97 196/131/97 208/131/97 222/131/97
f 136/131/98 226/131/98 202/131/98 133/131/98
f 143/131/99 165/131/99 163/131/99 147/131/99
f 152/131/100 156/131/100 158/131/100
f 187/131/101 141/131/101 139/131/101 189/131/101
f 137/131/102 138/131/102 139/131/102 140/131/102
f 141/131/103 142/131/103 143/131/103 144/131/103
f 145/131/104 146/131/104 147/131/104 148/131/104
f 149/131/105 150/131/105 151/131/105 152/131/105
f 153/131/106 154/131/106 155/131/106 156/131/106
f 157/131/107 158/131/107 159/131/107 160/131/107
f 161/131/108 162/131/108 163/131/108 164/131/108
f 165/131/109 166/131/109 167/131/109 168/131/109
f 169/131/110 170/131/110 171/131/110 172/131/110
f 173/131/111 174/131/111 175/131/111 176/131/111
f 177/131/112 178/131/112 179/131/112 180/131/112
f 181/131/113 182/131/113 183/131/113 184/131/113
f 185/131/114 186/131/114 187/131/114 188/131/114
f 189/131/115 190/131/115 191/131/115 192/131/115
f 193/131/116 194/131/116 195/131/116 196/131/116
f 197/131/117 198/131/117 199/131/117 200/131/117
f 201/131/118 202/131/118 203/131/118 204/131/118
f 205/131/119 206/131/119 207/131/119 208/131/119
f 209/131/120 210/131/120 211/131/120 212/131/120
f 213/131/121 214/131/121 215/131/121 216/131/121
f 217/131/122 218/131/122 219/131/122 220/131/122
f 221/131/123 222/131/123 223/131/123 224/131/123
f 225/131/124 226/131/124 227/131/124 228/131/124
f 229/131/125 230/131/125 231/131/125 232/131/125
f 145/131/126 137/131/126 140/131/126 146/131/126
f 139/131/127 141/131/127 144/131/127 140/131/127
f 143/131/128 147/131/128 146/131/128 144/131/128
f 157/131/129 149/131/129 152/131/129 158/131/129
f 151/131/130 153/131/130 156/131/130 152/131/130
f 155/131/131 159/131/131 158/131/131 156/131/131
f 169/131/132 161/131/132 164/131/132 170/131/132
f 163/131/133 165/131/133 168/131/133 164/131/133
f 167/131/134 171/131/134 170/131/134 168/131/134
f 181/131/135 173/131/135 176/131/135 182/131/135
f 175/131/136 177/131/136 180/131/136 176/131/136
f 179/131/137 183/131/137 182/131/137 180/131/137
f 193/131/138 185/131/138 188/131/138 194/131/138
f 187/131/139 189/131/139 192/131/139 188/131/139
f 191/131/140 195/131/140 194/131/140 192/131/140
f 205/131/141 197/131/141 200/131/141 206/131/141
f 199/131/142 201/131/142 204/131/142 200/131/142
f 203/131/143 207/131/143 206/131/143 204/131/143
f 217/131/144 209/131/144 212/131/144 218/131/144
f 211/131/145 213/131/145 216/131/145 212/131/145
f 215/131/146 219/131/146 218/131/146 216/131/146
f 229/131/147 221/131/147 224/131/147 230/131/147
f 223/131/148 225/131/148 228/131/148 224/131/148
f 227/131/149 231/131/149 230/131/149 228/131/149
f 174/131/150 162/131/150 161/131/150 175/131/150
f 172/131/151 178/131/151 177/131/151 169/131/151
f 166/131/152 210/131/152 209/131/152 167/131/152
f 220/131/153 172/131/153 171/131/153 217/131/153
f 214/131/154 222/131/154 221/131/154 215/131/154
f 232/131/155 220/131/155 219/131/155 229/131/155
f 226/131/156 184/131/156 183/131/156 227/131/156
f 178/131/157 232/131/157 231/131/157 179/131/157
f 150/131/158 138/131/158 137/131/158 151/131/158
f 148/131/159 154/131/159 153/131/159 145/131/159
f 142/131/160 166/131/160 165/131/160 143/131/160
f 162/131/161 148/131/161 147/131/161 163/131/161
f 184/131/162 160/131/162 159/131/162 181/131/162
f 154/131/163 174/131/163 173/131/163 155/131/163
f 210/131/164 186/131/164 185/131/164 211/131/164
f 196/131/165 214/131/165 213/131/165 193/131/165
f 190/131/166 198/131/166 197/131/166 191/131/166
f 208/131/167 196/131/167 195/131/167 205/131/167
f 202/131/168 226/131/168 225/131/168 203/131/168
f 222/131/169 208/131/169 207/131/169 223/131/169
f 186/131/170 142/131/170 141/131/170 187/131/170
f 138/131/171 190/131/171 189/131/171 139/131/171
f 160/131/172 202/131/172 201/131/172 157/131/172
f 198/131/173 150/131/173 149/131/173 199/131/173
f 151/131/174 137/131/174 145/131/174 153/131/174
