# Blender 4.4.1
# www.blender.org
mtllib maps_swipe_card.mtl
o Cube.001
v 0.918000 -0.250025 0.101311
v 0.918000 -0.772025 0.101311
v 0.918000 -0.250025 0.701311
v 0.918000 -0.772025 0.701311
v -0.918000 -0.250025 0.101311
v -0.918000 -0.772025 0.101311
v -0.918000 -0.250025 0.701311
v -0.918000 -0.772025 0.701311
vn -0.0000 1.0000 -0.0000
vn -0.0000 -0.0000 1.0000
vn -1.0000 -0.0000 -0.0000
vn -0.0000 -1.0000 -0.0000
vn 1.0000 -0.0000 -0.0000
vn -0.0000 -0.0000 -1.0000
vt 1.000000 1.000000
vt 0.000000 1.000000
vt 0.000000 0.625000
vt 1.000000 0.625000
vt 1.000000 0.375000
vt 1.000000 0.625000
vt 0.000000 0.625000
vt -0.000000 0.375000
vt 0.500000 0.000000
vt 0.500000 0.500000
vt 0.000000 0.500000
vt 0.000000 0.000000
vt 0.625000 0.000000
vt 0.625000 0.625000
vt -0.000000 0.000000
s 0
usemtl Material.001
f 1/1/1 5/2/1 7/3/1 3/4/1
f 4/5/2 3/6/2 7/7/2 8/8/2
f 8/9/3 7/10/3 5/11/3 6/12/3
f 6/12/4 2/13/4 4/14/4 8/7/4
f 2/9/5 1/10/5 3/11/5 4/12/5
f 6/13/6 5/14/6 1/7/6 2/15/6
