# Blender 4.3.2
# www.blender.org
mtllib maps_shields.mtl
o Куб
v -0.300000 0.450000 0.300000
v -0.300000 1.050000 0.300000
v -0.300000 0.450000 -0.300000
v -0.300000 1.050000 -0.300000
v 0.300000 0.450000 0.300000
v 0.300000 1.050000 0.300000
v 0.300000 0.450000 -0.300000
v 0.300000 1.050000 -0.300000
v 0.000000 -0.499000 -0.100000
v 0.000000 0.499000 -0.100000
v 0.019509 -0.499000 -0.098079
v 0.019509 0.499000 -0.098079
v 0.038268 -0.499000 -0.092388
v 0.038268 0.499000 -0.092388
v 0.055557 -0.499000 -0.083147
v 0.055557 0.499000 -0.083147
v 0.070711 -0.499000 -0.070711
v 0.070711 0.499000 -0.070711
v 0.083147 -0.499000 -0.055557
v 0.083147 0.499000 -0.055557
v 0.092388 -0.499000 -0.038268
v 0.092388 0.499000 -0.038268
v 0.098079 -0.499000 -0.019509
v 0.098079 0.499000 -0.019509
v 0.100000 -0.499000 0.000000
v 0.100000 0.499000 0.000000
v 0.098079 -0.499000 0.019509
v 0.098079 0.499000 0.019509
v 0.092388 -0.499000 0.038268
v 0.092388 0.499000 0.038268
v 0.083147 -0.499000 0.055557
v 0.083147 0.499000 0.055557
v 0.070711 -0.499000 0.070711
v 0.070711 0.499000 0.070711
v 0.055557 -0.499000 0.083147
v 0.055557 0.499000 0.083147
v 0.038268 -0.499000 0.092388
v 0.038268 0.499000 0.092388
v 0.019509 -0.499000 0.098079
v 0.019509 0.499000 0.098079
v 0.000000 -0.499000 0.100000
v 0.000000 0.499000 0.100000
v -0.019509 -0.499000 0.098079
v -0.019509 0.499000 0.098079
v -0.038268 -0.499000 0.092388
v -0.038268 0.499000 0.092388
v -0.055557 -0.499000 0.083147
v -0.055557 0.499000 0.083147
v -0.070711 -0.499000 0.070711
v -0.070711 0.499000 0.070711
v -0.083147 -0.499000 0.055557
v -0.083147 0.499000 0.055557
v -0.092388 -0.499000 0.038268
v -0.092388 0.499000 0.038268
v -0.098079 -0.499000 0.019509
v -0.098079 0.499000 0.019509
v -0.100000 -0.499000 0.000000
v -0.100000 0.499000 0.000000
v -0.098079 -0.499000 -0.019509
v -0.098079 0.499000 -0.019509
v -0.092388 -0.499000 -0.038268
v -0.092388 0.499000 -0.038268
v -0.083147 -0.499000 -0.055557
v -0.083147 0.499000 -0.055557
v -0.070711 -0.499000 -0.070711
v -0.070711 0.499000 -0.070711
v -0.055557 -0.499000 -0.083147
v -0.055557 0.499000 -0.083147
v -0.038268 -0.499000 -0.092388
v -0.038268 0.499000 -0.092388
v -0.019509 -0.499000 -0.098079
v -0.019509 0.499000 -0.098079
vn -1.0000 -0.0000 -0.0000
vn -0.0000 -0.0000 -1.0000
vn 1.0000 -0.0000 -0.0000
vn -0.0000 -0.0000 1.0000
vn -0.0000 -1.0000 -0.0000
vn -0.0000 1.0000 -0.0000
vn 0.0980 -0.0000 -0.9952
vn 0.2903 -0.0000 -0.9569
vn 0.4714 -0.0000 -0.8819
vn 0.6344 -0.0000 -0.7730
vn 0.7730 -0.0000 -0.6344
vn 0.8819 -0.0000 -0.4714
vn 0.9569 -0.0000 -0.2903
vn 0.9952 -0.0000 -0.0980
vn 0.9952 -0.0000 0.0980
vn 0.9569 -0.0000 0.2903
vn 0.8819 -0.0000 0.4714
vn 0.7730 -0.0000 0.6344
vn 0.6344 -0.0000 0.7730
vn 0.4714 -0.0000 0.8819
vn 0.2903 -0.0000 0.9569
vn 0.0980 -0.0000 0.9952
vn -0.0980 -0.0000 0.9952
vn -0.2903 -0.0000 0.9569
vn -0.4714 -0.0000 0.8819
vn -0.6344 -0.0000 0.7730
vn -0.7730 -0.0000 0.6344
vn -0.8819 -0.0000 0.4714
vn -0.9569 -0.0000 0.2903
vn -0.9952 -0.0000 0.0980
vn -0.9952 -0.0000 -0.0980
vn -0.9569 -0.0000 -0.2903
vn -0.8819 -0.0000 -0.4714
vn -0.7730 -0.0000 -0.6344
vn -0.6344 -0.0000 -0.7730
vn -0.4714 -0.0000 -0.8819
vn -0.2903 -0.0000 -0.9569
vn -0.0980 -0.0000 -0.9952
vt 0.250000 0.750000
vt 0.500000 0.750000
vt 0.500000 1.000000
vt 0.250000 1.000000
vt 0.000000 0.750000
vt 0.000000 1.000000
vt 0.105987 0.009907
vt 0.105987 0.747906
vt 0.102781 0.747906
vt 0.102781 0.009907
vt 0.099574 0.747906
vt 0.099574 0.009907
vt 0.096368 0.747906
vt 0.096368 0.009907
vt 0.093162 0.747906
vt 0.093162 0.009907
vt 0.089956 0.747906
vt 0.089956 0.009907
vt 0.086750 0.747906
vt 0.086750 0.009907
vt 0.083543 0.747906
vt 0.083543 0.009907
vt 0.080337 0.747906
vt 0.080337 0.009907
vt 0.077131 0.747906
vt 0.077131 0.009907
vt 0.073925 0.747906
vt 0.073925 0.009907
vt 0.070719 0.747906
vt 0.070719 0.009907
vt 0.067512 0.747906
vt 0.067512 0.009907
vt 0.064306 0.747906
vt 0.064306 0.009907
vt 0.061100 0.747906
vt 0.061100 0.009907
vt 0.057894 0.747906
vt 0.057894 0.009907
vt 0.054688 0.747906
vt 0.054688 0.009907
vt 0.051481 0.747906
vt 0.051481 0.009907
vt 0.048275 0.747906
vt 0.048275 0.009907
vt 0.045069 0.747906
vt 0.045069 0.009907
vt 0.041863 0.747906
vt 0.041863 0.009907
vt 0.038656 0.747906
vt 0.038656 0.009907
vt 0.035450 0.747906
vt 0.035450 0.009907
vt 0.032244 0.747906
vt 0.032244 0.009907
vt 0.029038 0.747906
vt 0.029038 0.009907
vt 0.025832 0.747906
vt 0.025832 0.009907
vt 0.022625 0.747906
vt 0.022625 0.009907
vt 0.019419 0.747906
vt 0.019419 0.009907
vt 0.016213 0.747906
vt 0.016213 0.009907
vt 0.013007 0.747906
vt 0.013007 0.009907
vt 0.009801 0.747906
vt 0.009801 0.009907
vt 0.067958 0.144734
vt 0.058594 0.145656
vt 0.049229 0.144734
vt 0.040225 0.142003
vt 0.031926 0.137567
vt 0.024653 0.131597
vt 0.018683 0.124324
vt 0.014248 0.116025
vt 0.011516 0.107021
vt 0.010594 0.097656
vt 0.011516 0.088292
vt 0.014248 0.079287
vt 0.018683 0.070989
vt 0.024653 0.063715
vt 0.031926 0.057746
vt 0.040225 0.053310
vt 0.049229 0.050579
vt 0.058594 0.049656
vt 0.067958 0.050579
vt 0.076963 0.053310
vt 0.085261 0.057746
vt 0.092535 0.063715
vt 0.098504 0.070989
vt 0.102940 0.079287
vt 0.105671 0.088292
vt 0.106594 0.097656
vt 0.105671 0.107021
vt 0.102940 0.116025
vt 0.098504 0.124324
vt 0.092535 0.131597
vt 0.085261 0.137567
vt 0.076963 0.142003
vt 0.006594 0.747906
vt 0.006594 0.009907
vt 0.003388 0.747906
vt 0.003388 0.009907
vt 0.062500 0.673000
vt 0.071864 0.672078
vt 0.080869 0.669346
vt 0.089167 0.664911
vt 0.096441 0.658941
vt 0.102411 0.651667
vt 0.106846 0.643369
vt 0.109578 0.634364
vt 0.110500 0.625000
vt 0.109578 0.615636
vt 0.106846 0.606631
vt 0.102411 0.598333
vt 0.096441 0.591059
vt 0.089167 0.585089
vt 0.076963 0.456918
vt 0.071864 0.577922
vt 0.062500 0.577000
vt 0.053136 0.577922
vt 0.044131 0.580654
vt 0.035833 0.585089
vt 0.028559 0.591059
vt 0.022589 0.598333
vt 0.018154 0.606631
vt 0.015422 0.615636
vt 0.014500 0.625000
vt 0.015422 0.634364
vt 0.018154 0.643369
vt 0.022589 0.651667
vt 0.028559 0.658941
vt 0.035833 0.664911
vt 0.044131 0.669346
vt 0.053136 0.672078
s 0
usemtl Материал
f 1/1/1 2/2/1 4/3/1 3/4/1
f 3/1/2 4/2/2 8/3/2 7/4/2
f 7/5/3 8/1/3 6/4/3 5/6/3
f 5/1/4 6/2/4 2/3/4 1/4/4
f 3/1/5 7/2/5 5/3/5 1/4/5
f 8/1/6 4/2/6 2/3/6 6/4/6
f 9/7/7 10/8/7 12/9/7 11/10/7
f 11/10/8 12/9/8 14/11/8 13/12/8
f 13/12/9 14/11/9 16/13/9 15/14/9
f 15/14/10 16/13/10 18/15/10 17/16/10
f 17/16/11 18/15/11 20/17/11 19/18/11
f 19/18/12 20/17/12 22/19/12 21/20/12
f 21/20/13 22/19/13 24/21/13 23/22/13
f 23/22/14 24/21/14 26/23/14 25/24/14
f 25/24/15 26/23/15 28/25/15 27/26/15
f 27/26/16 28/25/16 30/27/16 29/28/16
f 29/28/17 30/27/17 32/29/17 31/30/17
f 31/30/18 32/29/18 34/31/18 33/32/18
f 33/32/19 34/31/19 36/33/19 35/34/19
f 35/34/20 36/33/20 38/35/20 37/36/20
f 37/36/21 38/35/21 40/37/21 39/38/21
f 39/38/22 40/37/22 42/39/22 41/40/22
f 41/40/23 42/39/23 44/41/23 43/42/23
f 43/42/24 44/41/24 46/43/24 45/44/24
f 45/44/25 46/43/25 48/45/25 47/46/25
f 47/46/26 48/45/26 50/47/26 49/48/26
f 49/48/27 50/47/27 52/49/27 51/50/27
f 51/50/28 52/49/28 54/51/28 53/52/28
f 53/52/29 54/51/29 56/53/29 55/54/29
f 55/54/30 56/53/30 58/55/30 57/56/30
f 57/56/31 58/55/31 60/57/31 59/58/31
f 59/58/32 60/57/32 62/59/32 61/60/32
f 61/60/33 62/59/33 64/61/33 63/62/33
f 63/62/34 64/61/34 66/63/34 65/64/34
f 65/64/35 66/63/35 68/65/35 67/66/35
f 67/66/36 68/65/36 70/67/36 69/68/36
f 12/69/6 10/70/6 72/71/6 70/72/6 68/73/6 66/74/6 64/75/6 62/76/6 60/77/6 58/78/6 56/79/6 54/80/6 52/81/6 50/82/6 48/83/6 46/84/6 44/85/6 42/86/6 40/87/6 38/88/6 36/89/6 34/90/6 32/91/6 30/92/6 28/93/6 26/94/6 24/95/6 22/96/6 20/97/6 18/98/6 16/99/6 14/100/6
f 69/68/37 70/67/37 72/101/37 71/102/37
f 71/102/38 72/101/38 10/103/38 9/104/38
f 9/105/5 11/106/5 13/107/5 15/108/5 17/109/5 19/110/5 21/111/5 23/112/5 25/113/5 27/114/5 29/115/5 31/116/5 33/117/5 35/118/5 37/119/5 39/120/5 41/121/5 43/122/5 45/123/5 47/124/5 49/125/5 51/126/5 53/127/5 55/128/5 57/129/5 59/130/5 61/131/5 63/132/5 65/133/5 67/134/5 69/135/5 71/136/5
